<?xml version="1.0" encoding="UTF-8" standalone="no"?>
<svg
   viewBox="0 0 615.16 322.96"
   version="1.1"
   id="svg1"
   sodipodi:docname="Empire.svg"
   inkscape:version="1.3.2 (091e20e, 2023-11-25)"
   xmlns:inkscape="http://www.inkscape.org/namespaces/inkscape"
   xmlns:sodipodi="http://sodipodi.sourceforge.net/DTD/sodipodi-0.dtd"
   xmlns="http://www.w3.org/2000/svg"
   xmlns:svg="http://www.w3.org/2000/svg">
  <defs
     id="defs1" />
  <sodipodi:namedview
     id="namedview1"
     pagecolor="#ffffff"
     bordercolor="#000000"
     borderopacity="0.25"
     inkscape:showpageshadow="2"
     inkscape:pageopacity="0.0"
     inkscape:pagecheckerboard="0"
     inkscape:deskcolor="#d1d1d1"
     inkscape:zoom="0.73074067"
     inkscape:cx="239.48304"
     inkscape:cy="112.21491"
     inkscape:window-width="1280"
     inkscape:window-height="449"
     inkscape:window-x="0"
     inkscape:window-y="34"
     inkscape:window-maximized="0"
     inkscape:current-layer="svg1" />
  <path
     d="M0 161.48V0h615.16v322.96H0Zm318.64 123c20.17-2 40.75-9.38 57.23-20.55 23.15-15.7 41.36-40.66 48.74-66.82 3.56-12.6 4.7-21 4.69-34.6 0-12.22-.7-18.27-3.37-29.23-11.3-46.42-49.36-82.26-96.56-90.98a121.15 121.15 0 0 0-44.56 0 122.58 122.58 0 0 0-97.64 96.37c-1.82 9.1-2.25 15.14-1.98 27.38.22 9.55.5 12.8 1.58 18.5 4.63 24.25 15.2 45 31.76 62.36 25.9 27.15 63.3 41.19 100.11 37.56zm-29-2.35a121.85 121.85 0 0 1-67.7-34.04c-6.86-6.85-14.8-16.97-17.58-22.38-.84-1.64-.84-1.64.82-2.86 2.42-1.78 6.35-3.96 7.14-3.95.37 0 1.49 1.2 2.47 2.66 4.44 6.6 13.83 18.04 15.25 18.59.47.17 2.15-1.08 4.45-3.31 2.04-1.98 3.94-3.6 4.22-3.6.28 0 1.07.61 1.75 1.35 1.69 1.82 8.55 7.12 13.52 10.45 4.74 3.17 15.66 8.51 21.56 10.54 2.26.78 4.3 1.6 4.56 1.81.26.23-.02 2.27-.64 4.77-1.4 5.53-1.38 5.87.22 6.48 2.17.82 12.31 2.48 19.44 3.17l6.67.65.14 5.26.15 5.25-5.79-.05a90.73 90.73 0 0 1-10.65-.8zm18.67.16c-.14-.37-.2-2.74-.11-5.25l.15-4.58 6.66-.61c11.18-1.03 21.29-3.12 21.27-4.4 0-.34-.56-2.75-1.23-5.35l-1.21-4.73 2.89-1.06c8.07-2.97 10.37-3.94 15.2-6.41 6.52-3.35 13.2-7.82 19.16-12.81 2.51-2.12 4.76-3.84 5-3.84.23 0 2.11 1.67 4.19 3.71l3.77 3.72 3.58-3.84c3.2-3.43 8.26-9.9 12.38-15.86.8-1.15 1.73-2.09 2.07-2.09 1.16 0 8.54 4.64 8.54 5.37 0 1.14-6.66 10.79-11.16 16.17-18.76 22.42-46.1 37.53-75.54 41.76-6.97 1-15.24 1.06-15.6.1zm-15.2-12.68c-4.25-.58-12.14-2.31-12.6-2.77-.18-.18.19-2.33.81-4.78a47.37 47.37 0 0 0 1.14-5.25c0-.54-1.79-1.37-5.9-2.72-13.18-4.34-24.77-11.37-36.75-22.29l-1.4-1.26-3.77 3.66c-2.08 2.01-4.04 3.66-4.35 3.66-1 0-8.22-8.7-12.23-14.73a159.1 159.1 0 0 1-7.33-12.55c-4.02-7.8-7.8-18.68-6.73-19.35.36-.22 2.59-.92 4.95-1.54 2.37-.63 4.43-1.35 4.6-1.6.15-.26-.19-2.72-.75-5.47-2.63-12.71-2.76-26.8-.34-38.31.7-3.39 1.3-6.42 1.3-6.73 0-.32-2.3-1.22-5.12-1.99-3.67-1-5.12-1.63-5.12-2.2 0-1.25 3.47-11.08 5.34-15.13 4.37-9.44 11.83-20.85 17.88-27.33l3.53-3.78 3.9 3.59c2.13 1.97 4.1 3.58 4.35 3.58.26 0 2.11-1.52 4.12-3.37 9.53-8.83 22.35-16.12 36.36-20.7 1.9-.62 3.46-1.4 3.46-1.74 0-.33-.46-2.27-1.02-4.3-1.6-5.77-1.55-5.96 1.92-6.72 11.4-2.51 26.4-3.31 36.57-1.95 6.21.84 12.59 2.15 13.64 2.8.47.3.31 1.58-.63 5.24-.69 2.67-1.25 5-1.26 5.19 0 .18 2.59 1.18 5.76 2.23 12.9 4.24 23.7 10.54 34.42 20.07 2 1.79 3.84 3.25 4.08 3.25.24 0 2.17-1.67 4.29-3.71l3.84-3.72 2.81 3.08c7.03 7.69 14 18.37 18.72 28.7 2.35 5.15 5.02 12.87 5.02 14.53 0 .7-1.05 1.18-4.64 2.14a54.58 54.58 0 0 0-5.1 1.53c-.26.16.11 3 .84 6.43 1.04 4.93 1.35 8.13 1.58 16.3.29 10.74-.14 16.05-1.96 23.88-.74 3.21-.84 4.42-.4 4.7.33.2 2.52.88 4.88 1.51 2.35.64 4.49 1.4 4.74 1.72.7.87-3.01 11.36-6.55 18.46-4.82 9.7-12.72 21.16-18.21 26.43l-1.85 1.77-2.94-2.81c-5.55-5.32-4.7-5.17-8.7-1.5a96.13 96.13 0 0 1-35.06 20.5c-2.64.88-4.96 1.76-5.14 1.96-.18.2.26 2.61.97 5.37.71 2.76 1.17 5.14 1.02 5.3-.16.14-3.01.85-6.35 1.57-5.38 1.15-7.5 1.32-18.63 1.46-6.91.1-14.12-.05-16.01-.3zm27.68-25.77c2.05-.36 3.95-.9 4.24-1.18.35-.35-.91-7-3.85-20.3-2.4-10.89-4.37-20.24-4.37-20.79 0-.77.86-1.3 3.87-2.4a49.42 49.42 0 0 0 12.79-7.63c.84-.74 1.78-1.35 2.07-1.35.48 0 10.28 8.72 25.75 22.93 3.5 3.21 5.99 5.14 6.44 4.97.88-.34 5.07-5.5 7.87-9.7 4.34-6.53 9.9-18.17 9.9-20.74 0-1.04-2.12-1.82-21.79-7.97-5.07-1.59-11.37-3.59-13.99-4.44l-4.77-1.56.41-2.38c.46-2.66.55-13.31.15-17.2l-.25-2.53 2.73-.95c1.5-.53 10.37-3.37 19.7-6.32 9.34-2.95 17.2-5.59 17.49-5.87 1.92-1.92-8.64-21.86-15.57-29.39l-2.3-2.51L352 120.55a746.47 746.47 0 0 1-15.97 14.4c-.41.23-1.73-.5-3.48-1.95-3.57-2.94-9.9-6.56-12.97-7.42-1.3-.36-2.47-.96-2.61-1.34-.3-.75.4-4.14 5.3-26.26 1.88-8.53 3.13-15.26 2.88-15.5-.24-.25-2.86-.82-5.8-1.27-6.26-.96-22.27-.73-27.4.4-2.85.62-3.07.76-2.9 1.95.09.7 2.1 10.1 4.48 20.88 2.37 10.77 4.31 19.68 4.31 19.8 0 .11-.75.49-1.67.83-6.8 2.57-10.33 4.55-14.89 8.35l-2.46 2.06-1.38-1.27-15.96-14.52-14.58-13.25-2.24 2.53c-3.17 3.6-7.87 10.56-10.52 15.62-2.65 5.06-5.67 12.66-5.34 13.5.27.72-.02.62 20.87 7.17 22.38 7.02 19.99 5.96 19.36 8.63-.67 2.84-.8 11.99-.23 16.4l.44 3.42-11.2 3.59c-6.16 1.97-15.32 4.89-20.35 6.48l-9.15 2.9.34 1.37c1.85 7.42 9.38 20.88 15.55 27.76l2.49 2.79 1.8-1.52c.99-.84 7.96-7.17 15.49-14.08 7.53-6.9 14-12.63 14.4-12.72.38-.08 2.16 1.03 3.94 2.47 2.79 2.26 9.07 5.7 13.87 7.61 1.25.5 1.36.75 1.06 2.24-.18.93-2.22 10.22-4.53 20.65-3.6 16.2-4.1 19.06-3.47 19.56.63.51 3.76 1.06 10.92 1.92 3.18.38 16.55-.2 20.39-.89zm-21.16-.85a76.93 76.93 0 0 1-6.15-.9c-2.03-.45-2.05-.47-1.98-2.73.04-1.26 1.85-10.3 4.01-20.08 2.17-9.78 3.87-18.3 3.78-18.91-.13-.88-.91-1.37-3.61-2.28-5-1.69-9.12-4.03-13.07-7.45-1.91-1.66-3.66-2.95-3.88-2.88-.22.07-7.22 6.36-15.56 13.97-8.34 7.6-15.45 13.9-15.8 13.99-2.2.51-11.88-14.43-15.15-23.42-1.4-3.83-1.45-4.17-.63-4.6 1.05-.55 14.17-4.83 28.57-9.34 5.64-1.76 10.51-3.4 10.82-3.64.42-.32.36-1.3-.21-3.63-1.02-4.13-1-12.96.04-17.17.44-1.76.64-3.3.46-3.4-.2-.12-9.22-3.03-20.08-6.47-10.85-3.43-19.92-6.42-20.15-6.63-.22-.22.15-1.87.83-3.67 2.78-7.4 8.48-17.19 13.08-22.49l1.99-2.29 1.74 1.44c.96.8 7.82 7.02 15.25 13.83 7.43 6.8 13.93 12.58 14.45 12.83.76.36 1.6-.14 4.11-2.41 3.42-3.1 9.24-6.36 13.94-7.82 2.5-.78 2.95-1.1 2.95-2.14 0-.67-1.71-9-3.8-18.49-5-22.75-4.87-22.1-4.33-22.44 1.27-.79 10.14-1.75 16.13-1.75 5.75 0 15.28 1.07 16.01 1.8.12.12-1.7 8.94-4.04 19.59a988.38 988.38 0 0 0-4.47 20.92c-.2 1.52-.13 1.57 3.55 2.72a35.05 35.05 0 0 1 13.2 7.51c1.77 1.59 3.53 2.81 3.91 2.73.38-.1 6.62-5.58 13.86-12.2 7.25-6.63 14.22-12.93 15.49-14l2.31-1.94 1.42 1.36c2.46 2.36 7.1 9.2 10 14.75 2.48 4.74 4.83 10.44 4.83 11.7 0 .62-.34.74-21.5 7.43-10.31 3.26-18.83 6-18.93 6.1-.11.1.18 2.04.64 4.31a38.08 38.08 0 0 1 .05 15.14 45.98 45.98 0 0 0-.76 4.2c0 .36 4.23 1.97 9.87 3.76 29.33 9.32 30.63 9.77 30.63 10.54 0 1.16-3.41 9.23-5.46 12.92-3.5 6.3-9.55 14.46-10.72 14.46-.63 0-1.36-.64-18.57-16.4a569.57 569.57 0 0 0-12.45-11.21c-.87-.63-1.24-.45-3.67 1.74-4.62 4.17-10.93 7.67-15.68 8.68-.93.2-1.82.69-1.97 1.08-.15.39.23 2.96.84 5.72 5.33 23.97 7.7 35.27 7.5 35.79-.53 1.4-16.2 2.58-23.64 1.77zM201 219.72c-4.28-6.92-9.22-19.85-11.52-30.14-3.72-16.67-3.86-36.84-.36-52.48 3.26-14.59 11.44-34.19 13.88-33.28 1.91.72 8.21 4.58 8.21 5.03 0 .28-1.26 3.24-2.81 6.58-2.9 6.24-6.93 17.24-6.93 18.92 0 .92 3.2 2.22 8.07 3.27.92.2 1.79.56 1.94.8.15.24-.22 3.05-.81 6.24-2.07 11.06-1.92 26.05.37 37.72.46 2.33.7 4.37.54 4.53-.15.16-2.44.91-5.07 1.67l-4.78 1.38.1 1.8c.13 2.23 3.85 12.38 7.01 19.1a52.99 52.99 0 0 1 2.37 5.5c0 .54-7.64 5.1-8.53 5.1-.33 0-1.1-.78-1.68-1.74zm206-.62a134.1 134.1 0 0 1-3.97-2.5c-.08-.07.92-2.4 2.23-5.19 4.03-8.56 7.4-17.8 7.4-20.27 0-1.25-.27-1.5-2.18-1.99-5.51-1.42-7.81-2.33-7.75-3.07.04-.42.44-2.84.88-5.38a102.1 102.1 0 0 0 .08-35.77c-1.23-7.02-1.29-6.58 1.02-7.32 1.13-.37 3.41-1.04 5.07-1.5l3.01-.84-.3-2.17c-.36-2.63-4.56-13.8-7.45-19.8l-2.1-4.37 1.36-1.1c.74-.62 2.73-1.83 4.42-2.7 2.3-1.19 3.23-1.44 3.74-1.02 1.09.9 6.17 11.54 8.18 17.13 4.9 13.6 7.06 26.12 7.1 41 .03 14.7-1.65 25.19-6.2 38.9-2.94 8.8-8.5 20.32-9.81 20.32-.5 0-2.63-1.06-4.73-2.36zM208 104.2c-2.35-1.4-3.98-2.73-3.98-3.22 0-.46.86-2.25 1.92-3.99 8.16-13.39 24-28.84 38.61-37.65C261.71 49 282.27 42.67 299.6 42.4l6.19-.1.14 5.22.15 5.21-2.71.28-8 .8c-7.55.77-17.52 2.91-17.52 3.76 0 .07.57 2.2 1.27 4.73.7 2.53 1.28 4.87 1.28 5.19 0 .32-2.47 1.43-5.5 2.47-10.72 3.69-22.05 10.17-31.22 17.87-2.58 2.17-5.01 3.94-5.4 3.94-.39 0-2.19-1.5-4-3.33-1.82-1.83-3.55-3.33-3.85-3.33-1.32 0-7.87 7.62-14.05 16.34-2.03 2.85-3.85 5.18-4.04 5.17-.2 0-2.15-1.09-4.34-2.4zm192.14.24c-3.74-5.4-10.25-13.74-13.09-16.76l-3.11-3.31-3.72 3.7c-2.05 2.03-4.02 3.7-4.38 3.7-.35 0-2.3-1.46-4.34-3.23A105.33 105.33 0 0 0 339.73 70c-3.04-1.08-5.62-2.12-5.74-2.31-.11-.19.35-2.5 1.03-5.12.69-2.62 1.13-4.96.98-5.2-.64-1.04-12.08-3.21-21.21-4.03-3.23-.29-6.06-.72-6.3-.96-.24-.24-.37-2.61-.29-5.26l.15-4.83 2.82-.17c7.22-.43 22.62 2.18 33.16 5.6 23.93 7.8 44.3 22.37 59.68 42.72 2.84 3.76 6.61 9.92 6.6 10.8 0 .44-8.07 5.4-8.73 5.38-.13 0-.9-.99-1.73-2.18z"
     id="path1"
     style="stroke:#ffffff;fill:none" />
</svg>
